<svg id="visual" viewBox="0 0 900 600" width="900" height="600" xmlns="http://www.w3.org/2000/svg" xmlns:xlink="http://www.w3.org/1999/xlink" version="1.1"><rect x="0" y="0" width="900" height="600" fill="#002233"></rect><path d="M440 0L398 0L398 19L537 19L537 39L358 39L358 58L450 58L450 77L448 77L448 97L420 97L420 116L300 116L300 135L490 135L490 155L409 155L409 174L555 174L555 194L460 194L460 213L394 213L394 232L382 232L382 252L247 252L247 271L499 271L499 290L460 290L460 310L523 310L523 329L384 329L384 348L419 348L419 368L464 368L464 387L437 387L437 406L472 406L472 426L322 426L322 445L447 445L447 465L370 465L370 484L430 484L430 503L271 503L271 523L496 523L496 542L306 542L306 561L268 561L268 581L525 581L525 600L0 600L0 581L0 581L0 561L0 561L0 542L0 542L0 523L0 523L0 503L0 503L0 484L0 484L0 465L0 465L0 445L0 445L0 426L0 426L0 406L0 406L0 387L0 387L0 368L0 368L0 348L0 348L0 329L0 329L0 310L0 310L0 290L0 290L0 271L0 271L0 252L0 252L0 232L0 232L0 213L0 213L0 194L0 194L0 174L0 174L0 155L0 155L0 135L0 135L0 116L0 116L0 97L0 97L0 77L0 77L0 58L0 58L0 39L0 39L0 19L0 19L0 0L0 0Z" fill="#9fa9b6" stroke-linecap="square" stroke-linejoin="miter"></path></svg>